# xmcd
#
# Track frame offsets:
# 182
# 23595
# 61565
# 80502
# 110042
# 148390
# 179745
# 200762
# 217327
#
# Disc length: 3316 seconds
#
#
# Revision: 11
# Processed by: cddbd v1.5.1PL2 Copyright (c) Steve Scherf et al.
# Submitted via: HACP 1.20
#
DISCID=8d0cf209,960cf209
DTITLE=Dire Straits - Brothers In Arms
DYEAR=1985
DGENRE=Rock
TTITLE0=So Far Away
TTITLE1=Money For Nothing
TTITLE2=Walk Of Life
TTITLE3=Your Latest Trick
TTITLE4=Why Worry
TTITLE5=Ride Across The River
TTITLE6=The Man's Too Strong
TTITLE7=One World
TTITLE8=Brothers In Arms
EXTD=
EXTT0=
EXTT1=
EXTT2=
EXTT3=
EXTT4=
EXTT5=
EXTT6=
EXTT7=
EXTT8=
PLAYORDER=
